<svg style="transform: rotate(-90deg);" width="30" height="19" viewBox="0 0 30 19" fill="none" xmlns="http://www.w3.org/2000/svg">
<path d="M0.900198 9.86832H0.900213C0.902142 9.9832 0.913641 10.102 0.956715 10.2226C0.999947 10.3436 1.07315 10.4614 1.19188 10.5782L8.65691 18.51C9.03659 18.9148 9.70965 18.9525 10.1197 18.5493L10.0496 18.478L10.1197 18.5493C10.5053 18.1702 10.5337 17.486 10.1588 17.0896L10.1588 17.0897L10.086 17.1583L10.1587 17.0895L4.3241 10.8998H28.0667C28.6374 10.8998 29.1 10.4372 29.1 9.86647C29.1 9.29576 28.6374 8.83314 28.0667 8.83314H4.32409L10.1587 2.64345C10.1587 2.64342 10.1587 2.64338 10.1588 2.64335L10.1588 2.64331L10.086 2.57472C10.422 2.21963 10.413 1.5819 10.0496 1.2549L0.900198 9.86832ZM0.900198 9.86832V9.86664C0.900198 9.74079 0.937624 9.60139 0.990009 9.47785C1.04239 9.35431 1.11397 9.23668 1.19072 9.15601L0.900198 9.86832Z" fill="#1B4388" stroke="#1B4388" stroke-width="0.2"/>
</svg>
