<svg width="26" height="26" viewBox="0 0 26 26" fill="none" xmlns="http://www.w3.org/2000/svg">
<path d="M22 13H25M22 13C22 12.2044 21.6839 11.4413 21.1213 10.8787C20.5587 10.3161 19.7956 10 19 10C18.2044 10 17.4413 10.3161 16.8787 10.8787C16.3161 11.4413 16 12.2044 16 13M22 13C22 13.7956 21.6839 14.5587 21.1213 15.1213C20.5587 15.6839 19.7956 16 19 16C18.2044 16 17.4413 15.6839 16.8787 15.1213C16.3161 14.5587 16 13.7956 16 13M16 13L1 13M4 4C4 4.79565 4.31607 5.55871 4.87868 6.12132C5.44129 6.68393 6.20435 7 7 7C7.79565 7 8.55871 6.68393 9.12132 6.12132C9.68393 5.55871 10 4.79565 10 4M4 4C4 3.20435 4.31607 2.44129 4.87868 1.87868C5.44129 1.31607 6.20435 1 7 1C7.79565 1 8.55871 1.31607 9.12132 1.87868C9.68393 2.44129 10 3.20435 10 4M4 4H1M10 4L25 4M4 22C4 22.7956 4.31607 23.5587 4.87868 24.1213C5.44129 24.6839 6.20435 25 7 25C7.79565 25 8.55871 24.6839 9.12132 24.1213C9.68393 23.5587 10 22.7956 10 22M4 22C4 21.2044 4.31607 20.4413 4.87868 19.8787C5.44129 19.3161 6.20435 19 7 19C7.79565 19 8.55871 19.3161 9.12132 19.8787C9.68393 20.4413 10 21.2044 10 22M4 22H1M10 22H25" stroke="#1B4388" stroke-width="2" stroke-linecap="round" stroke-linejoin="round"/>
</svg>
