<svg width="91" height="93" viewBox="0 0 91 93" fill="none" xmlns="http://www.w3.org/2000/svg">
<path fill-rule="evenodd" clip-rule="evenodd" d="M0.253539 25.6359L0.439389 43.7631C0.483858 48.1004 1.57454 52.363 3.61878 56.1887C8.18893 64.7414 18.8569 75.052 31.1282 82.7774C34.7728 85.0713 50.1687 92.622 51.2022 92.622C51.4307 92.622 51.6175 82.3129 51.6175 69.7132C51.6175 48.2082 51.5104 46.518 49.8781 42.1458C44.4556 27.6224 27.7558 13.1819 4.4784 2.88737L0 0.907349L0.253539 25.6359Z" fill="#94C83D"/>
<path fill-rule="evenodd" clip-rule="evenodd" d="M79.73 5.14648C70.2154 9.89935 61.4365 15.7275 54.5668 21.8511C48.1937 27.5336 48.0214 28.0029 50.8112 32.095C52.0909 33.9711 54.05 38.3014 55.1664 41.7174C57.0877 47.6011 57.1947 48.8737 57.1947 65.8592C57.1947 75.7215 57.4032 83.7905 57.6584 83.7905C59.1313 83.7905 71.2988 74.779 75.9704 70.2281C82.8683 63.5089 86.4589 58.1838 89.0047 50.8979C90.9421 45.3523 91 44.5417 91 23.0367C91 2.47103 90.8994 0.888624 89.5915 0.905527C88.8172 0.915991 84.379 2.82438 79.73 5.14648Z" fill="#1B4388"/>
</svg>
