<svg width="659" height="186" viewBox="0 0 659 186" fill="none" xmlns="http://www.w3.org/2000/svg">
<g clip-path="url(#clip0_1_2)">
<path d="M205.782 140.519H210.481L238.444 176.082V140.519H243.318V184.901H239.315L210.655 148.525V184.901H205.782V140.519Z" fill="#244483"/>
<path d="M281.724 140.229H286.423L306.613 184.901H301.275L296.054 173.298H271.861L266.582 184.901H261.419L281.724 140.229ZM294.081 168.656L283.987 146.088L273.892 168.656H294.081Z" fill="#244483"/>
<path d="M330.747 145.16H315.837V140.519H350.647V145.16H335.737V184.901H330.689L330.747 145.16Z" fill="#244483"/>
<path d="M368.748 166.336V140.519H373.795V166.046C373.795 175.618 378.9 181.014 387.371 181.014C395.841 181.014 400.714 176.024 400.714 166.336V140.519H405.762V165.988C405.762 178.925 398.336 185.597 387.197 185.597C384.66 185.765 382.117 185.375 379.747 184.454C377.378 183.534 375.238 182.105 373.48 180.269C371.721 178.433 370.386 176.235 369.569 173.827C368.751 171.42 368.471 168.863 368.748 166.336Z" fill="#244483"/>
<path d="M426.763 140.519H445.792C448.091 140.39 450.393 140.718 452.564 141.485C454.735 142.252 456.732 143.442 458.44 144.986C460.696 147.337 461.927 150.488 461.863 153.746V153.746C461.856 157.028 460.609 160.186 458.371 162.586C456.132 164.985 453.069 166.45 449.796 166.684L463.429 184.785H457.512L444.632 167.38H431.985V184.785H426.763V140.519ZM445.386 163.203C452.058 163.203 456.989 159.78 456.989 154.036C456.989 148.583 452.754 145.276 445.386 145.276H431.985V163.319L445.386 163.203Z" fill="#244483"/>
<path d="M498.587 140.229H503.286L523.533 184.901H518.138L512.917 173.298H488.782L483.503 184.901H478.397L498.587 140.229ZM510.944 168.656L500.907 146.088L490.581 168.656H510.944Z" fill="#244483"/>
<path d="M571.802 184.901H541.634V140.519H546.682V180.318H571.802V184.901Z" fill="#244483"/>
<path d="M587.351 178.461L590.484 174.806C592.467 176.816 594.836 178.407 597.447 179.483C600.058 180.56 602.859 181.1 605.684 181.072C611.485 181.072 615.546 177.881 615.546 173.53C615.546 169.411 613.342 167.09 603.943 165.117C593.732 162.913 589.033 159.606 589.033 152.296C589.154 150.531 589.633 148.81 590.44 147.236C591.247 145.662 592.365 144.269 593.727 143.14C595.089 142.012 596.666 141.172 598.362 140.671C600.058 140.171 601.839 140.02 603.595 140.229C609.29 140.069 614.845 142.01 619.201 145.682L616.301 149.511C612.753 146.404 608.195 144.692 603.479 144.696C597.677 144.696 594.022 147.887 594.022 151.89C594.022 156.067 596.285 158.388 606.09 160.476C615.894 162.565 620.536 166.278 620.536 173.066C620.536 180.666 614.212 185.597 605.394 185.597C598.683 185.643 592.215 183.085 587.351 178.461V178.461Z" fill="#244483"/>
<path d="M278.939 40.6739C283.932 40.593 288.884 41.5874 293.459 43.5894C298.034 45.5915 302.124 48.5544 305.452 52.277C305.917 49.0862 306.381 45.8953 306.671 42.7044H322.741V118.531H306.671L305.627 109.481C302.637 113.184 298.84 116.155 294.527 118.166C290.213 120.177 285.496 121.175 280.738 121.084C261.302 121.084 243.55 106.348 243.55 81.1688C243.55 53.8434 260.084 40.6739 278.939 40.6739ZM283.929 104.839C298.665 104.839 305.627 94.2224 305.627 80.5307C305.627 66.839 299.245 56.8602 284.103 56.8602C270.121 56.8602 260.896 66.723 260.896 81.749C260.682 84.8314 261.131 87.9238 262.212 90.8184C263.293 93.713 264.981 96.3425 267.164 98.5301C269.346 100.718 271.971 102.413 274.863 103.501C277.754 104.589 280.846 105.045 283.929 104.839V104.839Z" fill="#244483"/>
<path d="M393.346 40.7899C397.17 40.6468 400.982 41.3032 404.538 42.7174C408.093 44.1315 411.315 46.2722 413.996 49.0024C416.677 51.7327 418.759 54.9925 420.108 58.5733C421.457 62.1541 422.044 65.977 421.832 69.7977V118.009H404.427V72.6405C404.465 70.5211 404.061 68.4171 403.24 66.4626C402.42 64.5081 401.201 62.746 399.662 61.2886C398.123 59.8312 396.297 58.7106 394.3 57.998C392.304 57.2855 390.181 56.9969 388.067 57.1503C382.074 57.2664 376.276 59.3013 371.524 62.9561C366.773 66.6109 363.319 71.6929 361.67 77.4558V118.415H344.555V42.4724H360.915L361.67 56.106C365.354 51.2209 370.149 47.2836 375.657 44.6202C381.166 41.9567 387.229 40.6438 393.346 40.7899V40.7899Z" fill="#244483"/>
<path d="M606.96 66.8389C603.363 57.7305 592.572 54.3656 582.535 54.3656C573.485 54.3656 564.666 57.7305 564.666 63.0099C564.666 80.4146 620.652 63.0099 620.652 95.9628C620.652 113.368 602.899 121.606 586.19 121.606C571.512 121.606 551.033 117.197 544.651 99.1537L558.459 92.946C562.52 102.461 576.212 107.16 587.119 107.16C595.937 107.16 603.479 104.143 603.479 97.0071C603.479 79.8925 547.668 97.0071 547.668 64.1122C547.668 46.7075 566.929 40.4418 582.883 40.4418C598.838 40.4418 614.56 47.1136 619.723 61.2114C615.488 62.7778 611.253 64.6343 606.96 66.8389Z" fill="#244483"/>
<path d="M128.737 42.4724V89.6971C128.363 94.3983 129.748 99.0708 132.624 102.809C134.218 104.291 136.105 105.423 138.164 106.132C140.222 106.842 142.406 107.113 144.575 106.928C148.589 106.993 152.562 106.118 156.178 104.375C160.205 102.079 163.767 99.0482 166.679 95.4406C168.432 93.5182 169.422 91.0219 169.464 88.4208V42.4724H186.578V138.662C186.917 147.337 183.952 155.817 178.282 162.391C175.563 165.394 172.227 167.774 168.501 169.366C164.776 170.958 160.75 171.726 156.7 171.615C151.474 171.624 146.343 170.221 141.848 167.554C137.368 164.894 133.697 161.063 131.231 156.473C128.632 151.665 127.294 146.275 127.344 140.809C127.314 136.568 128.267 132.378 130.129 128.568C131.428 125.799 133.262 123.315 135.524 121.258C129.113 120.255 123.183 117.249 118.584 112.671C116.228 110.213 114.384 107.311 113.159 104.134C111.934 100.957 111.352 97.5681 111.448 94.1644V42.4724H128.737ZM169.986 113.251C167.878 115.45 165.522 117.397 162.966 119.053C160.49 120.789 157.913 122.378 155.25 123.81C151.839 125.409 148.856 127.795 146.548 130.772C144.81 133.589 143.961 136.864 144.111 140.171C143.903 144.046 145.121 147.864 147.534 150.904C148.683 152.181 150.101 153.187 151.686 153.849C153.272 154.511 154.984 154.813 156.7 154.733C158.527 154.82 160.349 154.489 162.028 153.765C163.707 153.041 165.198 151.943 166.389 150.556C168.942 147.245 170.219 143.127 169.986 138.952V113.251Z" fill="#244483"/>
<path d="M93.8693 17.4676C93.8693 6.7347 76.4646 0.0628931 76.4646 0.0628931V52.277H17.2307V17.1195C17.2307 6.38662 -0.174042 -0.285187 -0.174042 -0.285187V117.719H17.2307V69.9717H76.6386V117.719H94.0434V17.4676H93.8693Z" fill="#244483"/>
<path d="M222.722 17.5837C222.722 6.90877 205.608 0.527031 205.608 0.527031V118.299H222.722V17.5837Z" fill="#244483"/>
<path d="M514.831 17.4676C514.831 6.85073 497.832 0.527031 497.832 0.527031V52.161C494.43 48.4383 490.276 45.4793 485.646 43.4792C481.016 41.4792 476.014 40.4835 470.971 40.5579C452.174 40.5579 435.64 53.7274 435.64 80.5886C435.64 105.767 453.392 120.503 472.77 120.503C477.561 120.644 482.319 119.669 486.668 117.655C491.018 115.642 494.84 112.644 497.832 108.9L498.761 118.125H514.831V17.4676ZM475.961 104.839C472.879 105.031 469.792 104.559 466.908 103.456C464.024 102.353 461.411 100.644 459.244 98.444C457.078 96.2443 455.408 93.6053 454.348 90.7052C453.289 87.8051 452.864 84.7114 453.102 81.633C453.102 66.6069 462.153 56.7442 476.309 56.7442C491.509 56.7442 497.832 67.245 497.832 80.4146C497.832 93.5842 490.581 104.839 475.961 104.839V104.839Z" fill="#244483"/>
<path d="M547.436 11.376C549.66 14.1446 550.905 17.5719 550.975 21.1226V33.5959C556.776 30.057 564.144 24.2555 564.144 16.5394V0.352989C557.861 2.81016 552.167 6.56643 547.436 11.376Z" fill="#244483"/>
<path d="M526.666 0.352989C526.666 0.352989 547.436 8.1271 547.436 21.1226V37.309C547.436 37.309 526.666 29.5349 526.666 16.5394V0.352989Z" fill="#9FC654"/>
<path d="M634.517 144.058H629.818V141.099H641.885V144.058H637.418V155.661H634.285L634.517 144.058Z" fill="#244483"/>
<path d="M644.496 141.099H647.977L651.748 147.249L655.577 141.099H658.826V155.603H655.693V146.146L651.574 152.354L647.513 146.204V155.603H644.38L644.496 141.099Z" fill="#244483"/>
</g>
<defs>
<clipPath id="clip0_1_2">
<rect width="659" height="185.36" fill="white" transform="translate(0 0.29496)"/>
</clipPath>
</defs>
</svg>
