<?xml version="1.0" encoding="UTF-8"?>
<svg xmlns="http://www.w3.org/2000/svg" xmlns:xlink="http://www.w3.org/1999/xlink" viewBox="0 0 100 100" width="100px" height="100px">
<g id="surface2067305">
<path style=" stroke:none;fill-rule:nonzero;fill:rgb(10.588235%,26.274511%,53.333336%);fill-opacity:1;" d="M 50 10 C 40.105469 10 31.007812 13.613281 24.023438 19.582031 C 23.070312 20.34375 22.605469 21.5625 22.816406 22.761719 C 23.023438 23.960938 23.871094 24.953125 25.023438 25.347656 C 26.179688 25.738281 27.453125 25.472656 28.351562 24.648438 C 34.179688 19.667969 41.722656 16.667969 50 16.667969 C 67.320312 16.667969 81.503906 29.792969 83.171875 46.667969 L 73.332031 46.667969 L 86.667969 66.667969 L 100 46.667969 L 89.832031 46.667969 C 88.125 26.171875 70.925781 10 50 10 Z M 13.332031 33.332031 L 0 53.332031 L 10.167969 53.332031 C 11.875 73.828125 29.074219 90 50 90 C 59.894531 90 68.992188 86.386719 75.976562 80.417969 C 76.929688 79.65625 77.394531 78.4375 77.183594 77.238281 C 76.976562 76.039062 76.128906 75.046875 74.976562 74.652344 C 73.820312 74.261719 72.546875 74.527344 71.648438 75.351562 C 65.820312 80.332031 58.277344 83.332031 50 83.332031 C 32.679688 83.332031 18.496094 70.207031 16.828125 53.332031 L 26.667969 53.332031 Z M 13.332031 33.332031 "/>
</g>
</svg>
