<svg width="30" height="19" viewBox="0 0 30 19" fill="none" xmlns="http://www.w3.org/2000/svg">
<mask id="path-1-outside-1_331:3597" maskUnits="userSpaceOnUse" x="-0.000183105" y="0" width="30" height="19" fill="black">
<rect fill="white" x="-0.000183105" width="30" height="19"/>
<path d="M1.00001 9.86664C1.00001 9.65067 1.13063 9.36391 1.26316 9.22475L8.72966 1.2913C9.07826 0.930899 9.64302 0.889131 10.0494 1.2549C10.4128 1.5819 10.4218 2.21963 10.0858 2.57472L4.09223 8.93314H28.0665C28.582 8.93314 28.9998 9.35099 28.9998 9.86647C28.9998 10.3819 28.582 10.7998 28.0665 10.7998H4.09223L10.0858 17.1583C10.4218 17.5133 10.3979 18.1353 10.0494 18.478C9.68147 18.8398 9.07294 18.8076 8.72966 18.4416L1.26316 10.5082C1.04378 10.293 1.0037 10.0858 1.00001 9.86664Z"/>
</mask>
<path d="M1.00001 9.86664C1.00001 9.65067 1.13063 9.36391 1.26316 9.22475L8.72966 1.2913C9.07826 0.930899 9.64302 0.889131 10.0494 1.2549C10.4128 1.5819 10.4218 2.21963 10.0858 2.57472L4.09223 8.93314H28.0665C28.582 8.93314 28.9998 9.35099 28.9998 9.86647C28.9998 10.3819 28.582 10.7998 28.0665 10.7998H4.09223L10.0858 17.1583C10.4218 17.5133 10.3979 18.1353 10.0494 18.478C9.68147 18.8398 9.07294 18.8076 8.72966 18.4416L1.26316 10.5082C1.04378 10.293 1.0037 10.0858 1.00001 9.86664Z" fill="#1B4388"/>
<path d="M1.00001 9.86664C1.00001 9.65067 1.13063 9.36391 1.26316 9.22475L8.72966 1.2913C9.07826 0.930899 9.64302 0.889131 10.0494 1.2549C10.4128 1.5819 10.4218 2.21963 10.0858 2.57472L4.09223 8.93314H28.0665C28.582 8.93314 28.9998 9.35099 28.9998 9.86647C28.9998 10.3819 28.582 10.7998 28.0665 10.7998H4.09223L10.0858 17.1583C10.4218 17.5133 10.3979 18.1353 10.0494 18.478C9.68147 18.8398 9.07294 18.8076 8.72966 18.4416L1.26316 10.5082C1.04378 10.293 1.0037 10.0858 1.00001 9.86664Z" stroke="#1B4388" stroke-width="0.4" mask="url(#path-1-outside-1_331:3597)"/>
</svg>
