<svg width="18" height="18" viewBox="0 0 18 18" fill="none" xmlns="http://www.w3.org/2000/svg">
<path d="M11.6406 11.5769L11.6696 11.6049H11.71H12.4585L17.3486 16.5048L15.9999 17.8535L11.1 12.9634V12.2149V12.1745L11.072 12.1455L10.802 11.8655L10.7364 11.7975L10.6648 11.8591C9.54223 12.8241 8.08515 13.4049 6.5 13.4049C2.96523 13.4049 0.1 10.5397 0.1 7.00488C0.1 3.47011 2.96523 0.604883 6.5 0.604883C10.0348 0.604883 12.9 3.47011 12.9 7.00488C12.9 8.59003 12.3192 10.0471 11.3542 11.1697L11.2926 11.2413L11.3606 11.3069L11.6406 11.5769ZM1.9 7.00488C1.9 9.55011 3.95477 11.6049 6.5 11.6049C9.04523 11.6049 11.1 9.55011 11.1 7.00488C11.1 4.45965 9.04523 2.40488 6.5 2.40488C3.95477 2.40488 1.9 4.45965 1.9 7.00488Z" fill="#1B4388" stroke="white" stroke-width="0.2"/>
</svg>
