<svg width="17" height="22" viewBox="0 0 17 22" fill="none" xmlns="http://www.w3.org/2000/svg">
<path d="M6.58772 4.40737L6.58783 4.40737L6.58767 4.40273C6.57765 4.12092 6.6245 3.83997 6.72544 3.57666C6.82637 3.31335 6.97931 3.07307 7.17514 2.87015C7.37096 2.66724 7.60566 2.50586 7.86522 2.39564C8.12478 2.28541 8.40388 2.22861 8.68587 2.22861C8.96787 2.22861 9.24697 2.28541 9.50653 2.39564C9.76609 2.50586 10.0008 2.66724 10.1966 2.87015C10.3924 3.07307 10.5454 3.31335 10.6463 3.57666C10.7472 3.83997 10.7941 4.12092 10.7841 4.40273L10.784 4.40273V4.40628V4.56179H6.58604L6.58772 4.40737ZM13.5918 4.56179H12.0949V4.40772C12.1079 3.95223 12.0295 3.49874 11.8643 3.07405C11.6989 2.64891 11.4499 2.26127 11.1321 1.93406C10.8142 1.60686 10.4339 1.34675 10.0138 1.16914C9.59359 0.991517 9.14205 0.9 8.68587 0.9C8.2297 0.9 7.77816 0.991517 7.35799 1.16914C6.93781 1.34675 6.55754 1.60686 6.23968 1.93406C5.92182 2.26127 5.67283 2.64891 5.50746 3.07405C5.34226 3.49874 5.26385 3.95223 5.27685 4.40772V4.56179H3.77719C3.01411 4.56179 2.28229 4.86492 1.74271 5.4045C1.20313 5.94407 0.9 6.6759 0.9 7.43898V18.2228C0.9 18.9859 1.20313 19.7177 1.74271 20.2573C2.28229 20.7969 3.01411 21.1 3.77719 21.1H13.5918C14.3549 21.1 15.0867 20.7969 15.6263 20.2573C16.1658 19.7177 16.469 18.9859 16.469 18.2228V7.43898C16.469 6.6759 16.1658 5.94407 15.6263 5.4045C15.0867 4.86492 14.3549 4.56179 13.5918 4.56179ZM15.1581 18.2228C15.1581 18.6382 14.9931 19.0366 14.6993 19.3304C14.4056 19.6241 14.0072 19.7891 13.5918 19.7891H3.77719C3.36178 19.7891 2.96338 19.6241 2.66964 19.3304C2.3759 19.0366 2.21088 18.6382 2.21088 18.2228V7.43898C2.21088 7.02356 2.3759 6.62517 2.66964 6.33143C2.96338 6.03768 3.36178 5.87266 3.77719 5.87266H5.27408V8.13328C5.27408 8.30711 5.34313 8.47382 5.46605 8.59674C5.58897 8.71966 5.75568 8.78871 5.92951 8.78871C6.10335 8.78871 6.27006 8.71966 6.39298 8.59674C6.5159 8.47382 6.58495 8.30711 6.58495 8.13328V5.87266H10.784V8.13328C10.784 8.30711 10.8531 8.47382 10.976 8.59674C11.0989 8.71966 11.2656 8.78871 11.4395 8.78871C11.6133 8.78871 11.78 8.71966 11.9029 8.59674C12.0258 8.47382 12.0949 8.30711 12.0949 8.13328V5.87266H13.5918C14.0072 5.87266 14.4056 6.03768 14.6993 6.33143C14.9931 6.62517 15.1581 7.02356 15.1581 7.43898V18.2228Z" fill="#1B4388" stroke="#1B4388" stroke-width="0.2"/>
</svg>
